<svg xmlns="http://www.w3.org/2000/svg" xmlns:xlink="http://www.w3.org/1999/xlink" width="500" height="500" viewBox="0 0 500 500"><rect width="100%" height="100%" fill="#DDDDDD"/><path d="M108.29 232.78L106.53 243.17Q108.19 242.82 109.71 242.67Q111.22 242.51 112.64 242.51L112.64 242.51Q116.57 242.51 119.57 243.69Q122.57 244.86 124.61 246.93Q126.65 249.00 127.68 251.78Q128.72 254.55 128.72 257.76L128.72 257.76Q128.72 261.73 127.32 265.01Q125.92 268.29 123.44 270.61Q120.95 272.94 117.55 274.22Q114.16 275.50 110.15 275.50L110.15 275.50Q107.81 275.50 105.70 275.01Q103.60 274.53 101.75 273.72Q99.91 272.91 98.34 271.86Q96.77 270.80 95.53 269.63L95.53 269.63L98.15 266.01Q98.98 264.84 100.32 264.84L100.32 264.84Q101.18 264.84 102.08 265.39Q102.98 265.94 104.13 266.59Q105.29 267.25 106.86 267.80Q108.43 268.35 110.64 268.35L110.64 268.35Q112.98 268.35 114.78 267.60Q116.57 266.84 117.76 265.47Q118.95 264.11 119.56 262.23Q120.16 260.35 120.16 258.14L120.16 258.14Q120.16 254.07 117.80 251.78Q115.43 249.48 110.81 249.48L110.81 249.48Q107.26 249.48 103.53 250.79L103.53 250.79L98.22 249.28L102.36 225.06L126.99 225.06L126.99 228.68Q126.99 230.51 125.85 231.65Q124.71 232.78 121.99 232.78L121.99 232.78L108.29 232.78ZM170.84 250.00L170.84 250.00Q170.84 256.52 169.44 261.33Q168.05 266.15 165.58 269.29Q163.11 272.43 159.75 273.96Q156.38 275.50 152.49 275.50L152.49 275.50Q148.59 275.50 145.26 273.96Q141.93 272.43 139.48 269.29Q137.03 266.15 135.65 261.33Q134.27 256.52 134.27 250.00L134.27 250.00Q134.27 243.45 135.65 238.65Q137.03 233.85 139.48 230.71Q141.93 227.58 145.26 226.04Q148.59 224.50 152.49 224.50L152.49 224.50Q156.38 224.50 159.75 226.04Q163.11 227.58 165.58 230.71Q168.05 233.85 169.44 238.65Q170.84 243.45 170.84 250.00ZM162.04 250.00L162.04 250.00Q162.04 244.58 161.25 241.03Q160.46 237.48 159.13 235.37Q157.80 233.27 156.07 232.42Q154.35 231.58 152.49 231.58L152.49 231.58Q150.66 231.58 148.95 232.42Q147.24 233.27 145.93 235.37Q144.62 237.48 143.84 241.03Q143.07 244.58 143.07 250.00L143.07 250.00Q143.07 255.42 143.84 258.97Q144.62 262.52 145.93 264.63Q147.24 266.73 148.95 267.58Q150.66 268.42 152.49 268.42L152.49 268.42Q154.35 268.42 156.07 267.58Q157.80 266.73 159.13 264.63Q160.46 262.52 161.25 258.97Q162.04 255.42 162.04 250.00ZM210.86 250.00L210.86 250.00Q210.86 256.52 209.46 261.33Q208.07 266.15 205.60 269.29Q203.13 272.43 199.77 273.96Q196.40 275.50 192.51 275.50L192.51 275.50Q188.61 275.50 185.28 273.96Q181.95 272.43 179.50 269.29Q177.05 266.15 175.67 261.33Q174.29 256.52 174.29 250.00L174.29 250.00Q174.29 243.45 175.67 238.65Q177.05 233.85 179.50 230.71Q181.95 227.58 185.28 226.04Q188.61 224.50 192.51 224.50L192.51 224.50Q196.40 224.50 199.77 226.04Q203.13 227.58 205.60 230.71Q208.07 233.85 209.46 238.65Q210.86 243.45 210.86 250.00ZM202.06 250.00L202.06 250.00Q202.06 244.58 201.27 241.03Q200.48 237.48 199.15 235.37Q197.82 233.27 196.09 232.42Q194.37 231.58 192.51 231.58L192.51 231.58Q190.68 231.58 188.97 232.42Q187.26 233.27 185.95 235.37Q184.64 237.48 183.86 241.03Q183.09 244.58 183.09 250.00L183.09 250.00Q183.09 255.42 183.86 258.97Q184.64 262.52 185.95 264.63Q187.26 266.73 188.97 267.58Q190.68 268.42 192.51 268.42L192.51 268.42Q194.37 268.42 196.09 267.58Q197.82 266.73 199.15 264.63Q200.48 262.52 201.27 258.97Q202.06 255.42 202.06 250.00ZM265.65 263.52L261.13 267.97L249.43 256.28L237.63 268.04L233.11 263.59L244.91 251.76L233.66 240.51L238.15 236.03L249.40 247.27L260.57 236.10L265.13 240.58L253.92 251.79L265.65 263.52ZM301.91 232.78L300.15 243.17Q301.80 242.82 303.32 242.67Q304.84 242.51 306.25 242.51L306.25 242.51Q310.19 242.51 313.19 243.69Q316.19 244.86 318.22 246.93Q320.26 249.00 321.29 251.78Q322.33 254.55 322.33 257.76L322.33 257.76Q322.33 261.73 320.93 265.01Q319.53 268.29 317.05 270.61Q314.57 272.94 311.17 274.22Q307.77 275.50 303.77 275.50L303.77 275.50Q301.42 275.50 299.32 275.01Q297.21 274.53 295.37 273.72Q293.52 272.91 291.95 271.86Q290.38 270.80 289.14 269.63L289.14 269.63L291.76 266.01Q292.59 264.84 293.94 264.84L293.94 264.84Q294.80 264.84 295.70 265.39Q296.59 265.94 297.75 266.59Q298.90 267.25 300.47 267.80Q302.04 268.35 304.25 268.35L304.25 268.35Q306.60 268.35 308.39 267.60Q310.19 266.84 311.38 265.47Q312.57 264.11 313.17 262.23Q313.77 260.35 313.77 258.14L313.77 258.14Q313.77 254.07 311.41 251.78Q309.05 249.48 304.42 249.48L304.42 249.48Q300.87 249.48 297.14 250.79L297.14 250.79L291.83 249.28L295.97 225.06L320.60 225.06L320.60 228.68Q320.60 230.51 319.47 231.65Q318.33 232.78 315.60 232.78L315.60 232.78L301.91 232.78ZM364.45 250.00L364.45 250.00Q364.45 256.52 363.06 261.33Q361.66 266.15 359.19 269.29Q356.73 272.43 353.36 273.96Q350.00 275.50 346.10 275.50L346.10 275.50Q342.20 275.50 338.87 273.96Q335.54 272.43 333.09 269.29Q330.64 266.15 329.26 261.33Q327.88 256.52 327.88 250.00L327.88 250.00Q327.88 243.45 329.26 238.65Q330.64 233.85 333.09 230.71Q335.54 227.58 338.87 226.04Q342.20 224.50 346.10 224.50L346.10 224.50Q350.00 224.50 353.36 226.04Q356.73 227.58 359.19 230.71Q361.66 233.85 363.06 238.65Q364.45 243.45 364.45 250.00ZM355.66 250.00L355.66 250.00Q355.66 244.58 354.86 241.03Q354.07 237.48 352.74 235.37Q351.41 233.27 349.69 232.42Q347.96 231.58 346.10 231.58L346.10 231.58Q344.27 231.58 342.56 232.42Q340.86 233.27 339.54 235.37Q338.23 237.48 337.46 241.03Q336.68 244.58 336.68 250.00L336.68 250.00Q336.68 255.42 337.46 258.97Q338.23 262.52 339.54 264.63Q340.86 266.73 342.56 267.58Q344.27 268.42 346.10 268.42L346.10 268.42Q347.96 268.42 349.69 267.58Q351.41 266.73 352.74 264.63Q354.07 262.52 354.86 258.97Q355.66 255.42 355.66 250.00ZM404.47 250.00L404.47 250.00Q404.47 256.52 403.08 261.33Q401.68 266.15 399.21 269.29Q396.75 272.43 393.38 273.96Q390.02 275.50 386.12 275.50L386.12 275.50Q382.22 275.50 378.89 273.96Q375.56 272.43 373.11 269.29Q370.66 266.15 369.28 261.33Q367.90 256.52 367.90 250.00L367.90 250.00Q367.90 243.45 369.28 238.65Q370.66 233.85 373.11 230.71Q375.56 227.58 378.89 226.04Q382.22 224.50 386.12 224.50L386.12 224.50Q390.02 224.50 393.38 226.04Q396.75 227.58 399.21 230.71Q401.68 233.85 403.08 238.65Q404.47 243.45 404.47 250.00ZM395.68 250.00L395.68 250.00Q395.68 244.58 394.88 241.03Q394.09 237.48 392.76 235.37Q391.43 233.27 389.71 232.42Q387.98 231.58 386.12 231.58L386.12 231.58Q384.29 231.58 382.58 232.42Q380.88 233.27 379.56 235.37Q378.25 237.48 377.48 241.03Q376.70 244.58 376.70 250.00L376.70 250.00Q376.70 255.42 377.48 258.97Q378.25 262.52 379.56 264.63Q380.88 266.73 382.58 267.58Q384.29 268.42 386.12 268.42L386.12 268.42Q387.98 268.42 389.71 267.58Q391.43 266.73 392.76 264.63Q394.09 262.52 394.88 258.97Q395.68 255.42 395.68 250.00Z" fill="#999999"/></svg>