<svg id="Line" xmlns="http://www.w3.org/2000/svg" viewBox="0 0 64 64"><defs><style>.cls-1{fill:#231f20;}</style></defs><title>1</title><path class="cls-1" d="M57.73688,53.37592H56.166V50.74463a2.002,2.002,0,0,0-2-2h-.77149V23.81055h1.54981A1.99968,1.99968,0,0,0,56.94189,21.813v-2.9624a2.00141,2.00141,0,0,0-1.02148-1.74317L32.97656,4.25537a2.01248,2.01248,0,0,0-1.95263-.00049L8.0791,17.10791a2.00058,2.00058,0,0,0-1.021,1.74268V21.813a1.99968,1.99968,0,0,0,1.99755,1.99756h1.54981V48.74463H9.834a2.002,2.002,0,0,0-2,2v2.63129H6.42242a2.002,2.002,0,0,0-2,2v3.54443a1.00005,1.00005,0,0,0,1,1H58.73688a1.00005,1.00005,0,0,0,1-1V55.37592A2.002,2.002,0,0,0,57.73688,53.37592Zm-6.34235-4.63129H48.96094V23.81055h2.43359Zm-16.17773,0V23.81055H46.96094V48.74463Zm-18.17774,0V23.81055H28.7832V48.74463ZM30.7832,23.81055h2.4336V48.74463H30.7832Zm-21.72607-4.958L32,6.00049l22.94189,12.8501.00245,2.96L9.05811,21.813Zm3.54834,4.958h2.43359V48.74463H12.60547ZM9.834,50.74463H54.166v2.54443H9.834Zm47.9029,7.17572H6.42242V55.37592H57.73688Z"/></svg>