<svg id="Line" xmlns="http://www.w3.org/2000/svg" viewBox="0 0 64 64"><title>1</title><path d="M7.8916,52.28613H56.1084A3.89612,3.89612,0,0,0,60,48.39453V15.60742a3.8981,3.8981,0,0,0-3.89307-3.89355H7.89307A3.8981,3.8981,0,0,0,4,15.60742V48.39453A3.89612,3.89612,0,0,0,7.8916,52.28613ZM6,15.60742a1.89549,1.89549,0,0,1,1.89307-1.89355H56.10693A1.89549,1.89549,0,0,1,58,15.60742v1.90625H6Zm0,3.90625H58v3.79981H6Zm0,5.79981H58V48.39453a1.89382,1.89382,0,0,1-1.8916,1.8916H7.8916A1.89382,1.89382,0,0,1,6,48.39453Z"/><path d="M12.78564,46.5h9.5a3.00328,3.00328,0,0,0,3-3V41.68555a3.00328,3.00328,0,0,0-3-3h-9.5a3.00328,3.00328,0,0,0-3,3V43.5A3.00328,3.00328,0,0,0,12.78564,46.5Zm-1-4.81445a1.001,1.001,0,0,1,1-1h9.5a1.001,1.001,0,0,1,1,1V43.5a1.001,1.001,0,0,1-1,1h-9.5a1.001,1.001,0,0,1-1-1Z"/><path d="M32.00006,46.5H47.42871a1.0002,1.0002,0,0,0,0-2H32A1.0002,1.0002,0,0,0,32.00006,46.5Z"/><path d="M32.00006,40.71387H50.39844a1.0002,1.0002,0,0,0,0-2H32A1.0002,1.0002,0,0,0,32.00006,40.71387Z"/></svg>