<svg id="Outline" xmlns="http://www.w3.org/2000/svg" viewBox="0 0 512 512"><g id="Outline-2" data-name="Outline"><path d="M135.991,304H92.014A12.022,12.022,0,0,0,80,316.009v103.98A12.022,12.022,0,0,0,92.014,432h43.977A12.023,12.023,0,0,0,148,419.989V316.009A12.023,12.023,0,0,0,135.991,304ZM136,420l-44-.01L92.014,316l43.989.01Z"/><path d="M197.573,236A13.585,13.585,0,0,0,184,249.57V418.429A13.585,13.585,0,0,0,197.573,432h40.859A13.585,13.585,0,0,0,252,418.429V249.57A13.585,13.585,0,0,0,238.432,236ZM240,249.57V418.429a1.572,1.572,0,0,1-1.571,1.57H197.573a1.571,1.571,0,0,1-1.57-1.57V249.57a1.572,1.572,0,0,1,1.57-1.571h40.859A1.572,1.572,0,0,1,240,249.57Z"/><path d="M494,460h-3.2A119.781,119.781,0,0,0,460,293.2V80.529A16.547,16.547,0,0,0,443.471,64H408.534A16.547,16.547,0,0,0,392,80.529V272a119.548,119.548,0,0,0-36,5.525V188.751A14.769,14.769,0,0,0,341.249,174H302.757A14.768,14.768,0,0,0,288,188.751v143.5A119.612,119.612,0,0,0,293.2,460H52V22A18.02,18.02,0,0,0,34,4H18A18.019,18.019,0,0,0,0,22V482a30.033,30.033,0,0,0,30,30H494a18.02,18.02,0,0,0,18-18V478A18.02,18.02,0,0,0,494,460ZM404,80.529A4.535,4.535,0,0,1,408.534,76h34.937A4.535,4.535,0,0,1,448,80.529V285.913A119.056,119.056,0,0,0,404,272.6ZM300,188.751A2.755,2.755,0,0,1,302.757,186h38.492A2.756,2.756,0,0,1,344,188.751v93.3a120.6,120.6,0,0,0-44,33.013ZM30,500a18.019,18.019,0,0,1-18-18V22a6.007,6.007,0,0,1,6-6H34a6.007,6.007,0,0,1,6,6V466a6,6,0,0,0,6,6H302.656a120.659,120.659,0,0,0,37.078,28ZM284,392A108,108,0,1,1,392,500,108.123,108.123,0,0,1,284,392ZM500,494a6.007,6.007,0,0,1-6,6H444.271a120.647,120.647,0,0,0,37.078-28H494a6.007,6.007,0,0,1,6,6Z"/><path d="M392,304a88,88,0,1,0,88,88A88.1,88.1,0,0,0,392,304Zm0,164a76,76,0,1,1,76-76A76.085,76.085,0,0,1,392,468Z"/><path d="M388.858,366.572h9.43a6.578,6.578,0,0,1,6.57,6.57,6,6,0,0,0,12,0A18.6,18.6,0,0,0,398,354.572V348a6,6,0,0,0-12,0v6.782A21.7,21.7,0,0,0,388.858,398h6.289a9.714,9.714,0,0,1,0,19.428h-9.429a6.579,6.579,0,0,1-6.571-6.57,6,6,0,0,0-12,0A18.6,18.6,0,0,0,386,429.427V436a6,6,0,0,0,12,0v-6.782A21.7,21.7,0,0,0,395.147,386h-6.289a9.714,9.714,0,0,1,0-19.427Z"/><path d="M306.721,108.861a16,16,0,0,0,29.43-4.319l11.09-46.9a18.026,18.026,0,0,0-12.348-21.385l-46.16-13.842A16,16,0,0,0,270.28,45.739l1.223,2.118-157.618,91c-8.478,4.662-11.6,16.311-6.589,24.588l16,27.714a18.033,18.033,0,0,0,24.589,6.586l157.614-91Zm-164.836,78.49a6.008,6.008,0,0,1-8.2-2.195l-16-27.713a6.03,6.03,0,0,1,2.2-8.2l162.813-94a6.031,6.031,0,0,0,2.195-8.195l-4.222-7.313c-1.73-3.889,1.041-6.555,4.617-5.83l46.156,13.842a6.008,6.008,0,0,1,4.117,7.129l-11.09,46.9a3.979,3.979,0,0,1-7.359,1.084l-4.219-7.313a6.029,6.029,0,0,0-8.195-2.2Z"/></g></svg>