<svg id="Layer_1" data-name="Layer 1" xmlns="http://www.w3.org/2000/svg" viewBox="0 0 512 512"><path d="M343.7,134.474l-22.431,8.759a12.787,12.787,0,0,0-6.932,17.409l2.229,4.685-.443.188c-8.51,1.745-14.45,1.489-23.251-.963l-22.41-6.242a35.854,35.854,0,0,0-20.4.327l-21.628,6.78a35.741,35.741,0,0,0-11.828,6.339,46.37,46.37,0,0,0-17.221-1.684l1.36-2.566a12.791,12.791,0,0,0-4.715-16.932l-20.6-12.422a12.9,12.9,0,0,0-18.07,5.005L99.3,253.337a12.714,12.714,0,0,0,5.1,17.122l20.723,11.576a12.841,12.841,0,0,0,6.277,1.646,13.02,13.02,0,0,0,3.683-.536,12.756,12.756,0,0,0,7.726-6.306l2.1-3.962,7.055,5.831-12.982,17.858a20.222,20.222,0,0,0,16.362,32.119,20.491,20.491,0,0,0,3.273-.269A20.078,20.078,0,0,0,166.8,341.5h0a20.177,20.177,0,0,0,11.762,3.761,20.6,20.6,0,0,0,3.282-.269,20.2,20.2,0,0,0,19.939,16.854,20.506,20.506,0,0,0,3.275-.269,20.072,20.072,0,0,0,8.18,13.081h0a20.367,20.367,0,0,0,28.237-4.587l4-5.51,7.574,6a21.827,21.827,0,0,0,30.465-2.3,21.336,21.336,0,0,0,5.063-11.035,21.8,21.8,0,0,0,22.348-6.6,21.337,21.337,0,0,0,5.064-11.036,21.794,21.794,0,0,0,22.348-6.6,21.352,21.352,0,0,0,4.929-10.262,21.9,21.9,0,0,0,24.066-6.121l.258-.3a21.005,21.005,0,0,0-2.2-29.8l-4.488-3.84a45.881,45.881,0,0,0,8.308-7.339,12.83,12.83,0,0,0,10.227,5.082,12.979,12.979,0,0,0,5.128-1.061l21.828-9.372a12.786,12.786,0,0,0,6.547-17.22l-52.9-111.816A12.932,12.932,0,0,0,343.7,134.474ZM132.206,271.22a.844.844,0,0,1-.519.416.909.909,0,0,1-.711-.078l-20.723-11.575a.777.777,0,0,1-.335-1.051l58.065-110.18a.845.845,0,0,1,.535-.421.963.963,0,0,1,.256-.036.9.9,0,0,1,.467.132l20.6,12.423a.778.778,0,0,1,.31,1.037ZM162.1,313.285a8.323,8.323,0,0,1-11.537,1.875h0a8.231,8.231,0,0,1-1.874-11.536L170.222,274a8.328,8.328,0,0,1,11.546-1.876,8.224,8.224,0,0,1,1.873,11.527Zm23.24,16.44.038,0-.07.125a8.315,8.315,0,0,1-11.537,1.878,8.218,8.218,0,0,1-1.874-11.515l15.613-21.476a8.323,8.323,0,0,1,11.536-1.875,8.178,8.178,0,0,1,3.342,5.378,8.283,8.283,0,0,1-1.547,6.185Zm23.291,16.59,0,0-.091.124A8.322,8.322,0,0,1,197,348.318a8.229,8.229,0,0,1-1.876-11.534L205.868,322a8.334,8.334,0,0,1,11.546-1.875,8.223,8.223,0,0,1,1.872,11.528Zm29.018,8.6-5.884,8.1a8.337,8.337,0,0,1-11.555,1.877h0a8.213,8.213,0,0,1-1.873-11.514l5.894-8.109a8.33,8.33,0,0,1,11.546-1.877,8.222,8.222,0,0,1,1.873,11.528Zm120.9-46.493-.258.3a9.834,9.834,0,0,1-13.765,1.047l-26.048-22.309a6,6,0,0,0-7.81,9.111L328.33,311.7a9.454,9.454,0,0,1,.961,13.4,9.79,9.79,0,0,1-13.708.987l-22.218-19.022a6,6,0,0,0-8.577.8,6.168,6.168,0,0,0,.963,8.482L300.884,329.3a9.456,9.456,0,0,1,1,13.436,9.789,9.789,0,0,1-13.707.987L273.04,330.77a6.167,6.167,0,0,0-8.529.353,6,6,0,0,0,.533,8.6l8.428,7.215a9.458,9.458,0,0,1,1,13.437,9.791,9.791,0,0,1-13.708.987c-.059-.049-.117-.1-.177-.146l-9.675-7.662a20.147,20.147,0,0,0-18.3-23.6,20.155,20.155,0,0,0-18.365-23.26,20.2,20.2,0,0,0-17.568-23.2,20.523,20.523,0,0,0-.757-11.839,19.19,19.19,0,0,0-3.664-6.122,20.365,20.365,0,0,0-31.741,1.417l-1.482,2.039-8.387-6.932,41.676-78.642a42.138,42.138,0,0,1,15.6-1.286,35.819,35.819,0,0,0-1.636,3.338l-6.609,15.959c-1.7,4.1-3.266,8.315-4.657,12.521l-6.594,19.952a6,6,0,0,0,3.273,7.371l1.421.628a34.684,34.684,0,0,0,33.258-2.545,33.612,33.612,0,0,0,15.075-24.857c.031-.323.06-.649.085-.978.31-1.407,2.34-9.559,7.591-10.241l9.182,2.567a20.929,20.929,0,0,1,8.99,5.187l59.29,58.076,31,26.525a9.006,9.006,0,0,1,.951,12.8Zm-7.2-33.936-16.8-14.37L275.7,202.454a32.951,32.951,0,0,0-14.157-8.173l-10.137-2.833a6.382,6.382,0,0,0-1.639-.222c-6.955.028-12.882,3.9-16.692,10.889a33.691,33.691,0,0,0-3.409,9.586l-.156,1.635a21.661,21.661,0,0,1-9.741,16,22.8,22.8,0,0,1-18.138,2.85l4.785-14.475c1.3-3.929,2.761-7.863,4.348-11.695l6.587-15.9a23.561,23.561,0,0,1,14.676-13.241l21.629-6.78a23.882,23.882,0,0,1,13.586-.218l22.41,6.242c10.832,3.018,18.831,3.3,29.517,1.027l2.56-.964,41.512,87.237A33.84,33.84,0,0,1,351.346,274.488Zm50.775-16a.818.818,0,0,1-.458.468l-21.828,9.372a.9.9,0,0,1-1.162-.409l-53.5-112.429a.733.733,0,0,1-.022-.606.825.825,0,0,1,.483-.468l22.431-8.76a.926.926,0,0,1,.333-.062.882.882,0,0,1,.8.485l52.9,111.815A.74.74,0,0,1,402.121,258.483Z"/><path d="M259.242,225.543a6,6,0,1,0-8.484,8.486l3.037,3.037a6,6,0,0,0,8.484-8.485Z"/><path d="M277.13,243.43a6,6,0,0,0-8.486,8.485l21.923,21.924a6,6,0,0,0,8.487-8.485Z"/><path d="M256,73C155.094,73,73,155.093,73,256s82.094,183,183,183,183-82.093,183-183S356.906,73,256,73Zm0,354c-94.29,0-171-76.71-171-171S161.71,85,256,85s171,76.71,171,171S350.29,427,256,427Z"/><path d="M477.023,283.28a228.937,228.937,0,0,0-1.666-64.417l26.829-25.729a6,6,0,0,0,1.343-6.735l-29.137-66.6a6.006,6.006,0,0,0-5.937-3.579l-37.171,2.733A205.673,205.673,0,0,0,384.6,74.486l1.091-37.145a6,6,0,0,0-3.837-5.774L314.064,5.4a6,6,0,0,0-6.7,1.679l-24.071,27.9a228.972,228.972,0,0,0-64.427,1.665L193.134,9.821A6,6,0,0,0,186.4,8.477L119.8,37.615a6,6,0,0,0-3.578,5.937l2.732,37.171a205.653,205.653,0,0,0-44.465,46.683l-37.144-1.093a6.006,6.006,0,0,0-5.775,3.838L5.4,197.942a6,6,0,0,0,1.678,6.7l27.9,24.075a229.013,229.013,0,0,0,1.665,64.417L9.82,318.866A6,6,0,0,0,8.477,325.6l29.141,66.6a6.01,6.01,0,0,0,5.937,3.579l37.172-2.733a205.649,205.649,0,0,0,46.683,44.465l-1.093,37.144a6,6,0,0,0,3.837,5.775L197.945,506.6a6,6,0,0,0,6.7-1.679l24.073-27.9a229.04,229.04,0,0,0,64.416-1.665l25.729,26.827a6,6,0,0,0,6.736,1.344l66.6-29.138a6,6,0,0,0,3.578-5.937l-2.732-37.171a205.653,205.653,0,0,0,44.465-46.683l37.144,1.093a5.988,5.988,0,0,0,5.775-3.838L506.6,314.058a6,6,0,0,0-1.678-6.7Zm-6.256,90.287L434.574,372.5a6.09,6.09,0,0,0-5.169,2.669,193.787,193.787,0,0,1-46.147,48.455,6,6,0,0,0-2.416,5.265l2.661,36.2-58.875,25.758-25.046-26.116a6,6,0,0,0-5.41-1.749,217.1,217.1,0,0,1-67.127,1.735,6.011,6.011,0,0,0-5.316,2.031l-23.406,27.129-59.886-23.114,1.065-36.193a6,6,0,0,0-2.669-5.169,193.791,193.791,0,0,1-48.456-46.148,6.02,6.02,0,0,0-5.264-2.416L46.91,383.5,21.149,324.628l26.116-25.045a6.006,6.006,0,0,0,1.749-5.411,217.006,217.006,0,0,1-1.735-67.128,6,6,0,0,0-2.03-5.315L18.12,198.32l23.113-59.887L77.426,139.5a6,6,0,0,0,5.169-2.669,193.787,193.787,0,0,1,46.147-48.455,6,6,0,0,0,2.416-5.265l-2.661-36.2,58.875-25.758,25.046,26.116a5.994,5.994,0,0,0,5.41,1.749,217.132,217.132,0,0,1,67.138-1.736,6.009,6.009,0,0,0,5.316-2.03l23.405-27.129,59.886,23.114-1.064,36.193a6,6,0,0,0,2.669,5.169,193.82,193.82,0,0,1,48.455,46.147,6.015,6.015,0,0,0,5.263,2.417l36.2-2.662,25.756,58.875-26.115,25.046a6,6,0,0,0-1.749,5.41,217.066,217.066,0,0,1,1.736,67.128,6,6,0,0,0,2.03,5.315L493.88,313.68Z"/></svg>